<svg version="1.2" xmlns="http://www.w3.org/2000/svg" viewBox="0 0 32 32" width="32" height="32"><style></style><path  d="m15.1 9.4q-0.5 0.1-1.1 0.4c-0.3 0.1-0.7 0.4-0.7 0.4 0 0 0 0 0.2-0.1 0.2-0.2 0.6-0.3 0.9-0.4q0.4-0.2 0.3-0.1-0.1 0.1 0 0.1 0.1-0.1 0.1 0 0 0.1 0.1 0.1 0.2 0-0.2 0.1c-0.3 0.1-0.9 0.4-1 0.5 0 0 0.1-0.1 0.4-0.2 1.2-0.6 2.5-0.6 3.7-0.1 0.8 0.4 1.5 1 1.9 1.8 0.1 0.2 0.2 0.2 0.1 0q-0.2-0.3-0.5-0.7c-0.1-0.1-0.2-0.2-0.2-0.2q0-0.1 0-0.1 0 0-0.1 0 0 0 0-0.1 0 0 0 0 0 0 0 0c-0.1 0-0.6-0.4-0.6-0.4q0 0 0.1-0.1 0.1 0 0.1 0-0.1 0 0-0.1c0 0 0.1 0 0.3 0.1q0.1 0.2 0.1 0.3 0 0 0.1 0 0 0-0.1 0c-0.1 0.1-0.1 0.1 0 0.1 0.2 0 0.2 0 0.1 0.1q0 0.1 0 0.1 0.1-0.1 0.2-0.1 0 0.1 0 0c0.1 0 0.5 0.5 0.8 1 0.1 0.2 0.2 0.3 0.2 0.3 0-0.1-0.4-0.6-0.5-0.9-0.8-1-1.9-1.6-3.1-1.8-0.4-0.1-1.2-0.1-1.6 0zm1.9 0.1q0.7 0.1 1 0.3c0.2 0.1 0.2 0.1 0.1 0.2q0 0-0.1 0 0 0-0.1 0 0 0 0 0.1 0.1 0 0 0-0.1 0-0.2-0.1c-0.1 0-0.8-0.2-1-0.3-0.3 0-0.5 0-0.9 0-0.4 0-0.5 0-0.5 0q0-0.1 0-0.1-0.1 0-0.1 0 0-0.1-0.1-0.1 0 0 0 0c0-0.1 0.4-0.1 1-0.1 0.4 0 0.6 0 0.9 0.1zm1.2 0.7q0 0.1 0 0 0.1 0 0.1 0.1c0 0 0 0-0.1 0q-0.1-0.1-0.1-0.1 0.1 0 0.1 0zm0.8 0.7q0.1 0 0 0-0.1-0.1-0.1-0.1 0 0 0.1 0.1z"/><path  d="m13.2 10.3q-0.1 0.1 0 0 0 0 0 0 0-0.1 0 0z"/><path  d="m13 10.4q-0.1 0.1 0 0 0.1 0 0.1 0 0 0-0.1 0z"/><path  d="m12.7 10.7l-0.2 0.2 0.2-0.2c0.1-0.1 0.2-0.2 0.2-0.2 0 0-0.1 0-0.2 0.2z"/><path  d="m17.5 11.3c0.2 0.1 0.3 0.1 0.4 0.1 0 0-0.3 0-0.7 0h-0.7l-0.3 0.3c-0.4 0.5-0.4 0.5 0 0.1l0.4-0.3h0.7c0.6 0 0.8 0 0.8 0q-0.1 0.1-0.1 0.1 0 0 0 0 0 0 0 0 0.1 0 0.1 0-0.1 0.1-0.1 0.1 0.1 0 0 0 0 0.1 0.1 0.1 0 0.1 0.1 0.1 0.1 0 0.1 0 0 0 0 0 0.1 0 0.1 0 0.1-0.2 0.1 0.8c0 0.4 0 0.7 0 0.7 0 0 0-0.3 0-0.7q0-1.1 0.1-0.8c0 0 0-0.1 0-0.3v-0.3h-0.7c-0.7 0-0.7 0-0.4 0z"/><path  d="m13.5 11.6v0.2-0.2c0-0.1 0-0.1 0.1-0.1 0.1 0 0.1-0.1 0.2-0.1q0.1 0-0.1 0h-0.2z"/><path  d="m14.3 11.4q0 0 0.1 0 0 0-0.1 0-0.1 0 0 0z"/><path  d="m15.7 11.6l0.2 0.3-0.1 0.1q-0.1 0.1 0 0l0.1-0.1-0.2-0.3-0.3-0.2z"/><path  d="m16.6 12.3l-0.2 0.3 0.2-0.2 0.2-0.2h0.5 0.5v0.2 0.3-0.3-0.3h-0.5-0.5z"/><path  d="m15.4 12.3q0 0.1 0 0.1 0-0.1 0-0.1-0.1 0 0 0z"/><path  d="m16.7 12.7q0 0 0 0.1 0.1-0.1 0-0.1 0-0.1-0.1-0.1 0 0 0.1 0.1z"/><path  d="m17 13c0 0.1 0.1 0.1 0.1 0.1 0 0 0 0-0.1-0.1l-0.2-0.2z"/><path  d="m11.7 14.3c0 0.3 0.2 1 0.3 1.2q0 0.1-0.1 0.1c-0.1 0-0.1 0.1-0.1 0.1q0 0.1 0 0.1c-0.1 0-0.3-0.7-0.3-0.8q0-0.1 0-0.1c0-0.1-0.1-0.2-0.1-0.4 0-0.3 0-0.4-0.1-0.2 0 0.3 0.2 1 0.4 1.5 0.4 1.1 1.4 2 2.5 2.4 0.3 0.2 0.3 0.2 0 0q-0.5-0.2-0.5-0.2 0-0.1 0-0.1 0 0.1-0.1 0 0 0 0 0c0 0-0.4-0.2-0.5-0.4-0.2-0.1-0.2-0.1-0.1-0.1q0-0.1 0-0.1 0 0 0 0 0 0 0 0 0.1-0.1 0-0.1 0 0 0.1 0c0 0 0.1 0 0.1 0.1 0.5 0.3 1 0.6 1.3 0.7q0.1 0-0.1-0.1c-0.5-0.2-0.9-0.5-1.3-0.9-0.4-0.3-0.7-0.6-0.9-1.1-0.2-0.5-0.4-0.9-0.5-1.7v-0.2zm0.9 2.4q0.3 0.3 0.2 0.3-0.1-0.1-0.2 0.1 0 0.1 0 0 0.1 0 0.1 0.1c-0.1 0 0 0.1 0.1 0.1q0 0 0 0 0 0.1 0 0.1c0.1 0.1-0.4-0.5-0.5-0.6-0.2-0.2-0.2-0.3-0.1-0.2 0.1 0 0.1 0 0.1 0q0-0.1 0-0.2v-0.1l0.1 0.1c0 0.1 0.1 0.2 0.2 0.3zm0.4 0.5q0 0.1 0 0.1-0.1 0-0.1 0 0-0.1 0.1-0.1 0 0 0 0zm-0.1 0.2q0.1 0 0 0 0 0 0 0 0 0 0 0 0 0 0 0z"/><path  d="m13.5 15c-0.1 0.2-0.1 0.4-0.1 0.6q0 0.5 0 0c0-0.2 0-0.2-0.1 0.4v0.7h0.4c0.4-0.1 1-0.1 0.8-0.1-0.3 0 0-0.1 0.5-0.1h0.5l0.2-0.2c0.3-0.4 0.4-0.5 0.1-0.2-0.2 0.2-0.3 0.3-0.3 0.3q0 0 0 0c0 0.1-0.1 0.1-0.3 0.1-0.2 0-0.3-0.1-0.3-0.1 0 0-0.3-0.1-0.3-0.1q0 0-0.1 0-0.1-0.1-0.1-0.1-0.1 0 0 0l0.1-0.1h-0.1q0 0 0 0 0 0-0.1 0 0 0 0 0c0-0.1-0.2-0.1-0.2 0q-0.1 0-0.1-0.1-0.1 0 0 0c0.1 0 0.1 0 0-0.1q-0.2-0.1-0.1-0.1 0.1 0.1 0 0c0-0.1 0-0.1-0.1 0-0.1 0-0.2 0-0.2 0.1h-0.1v-0.6c0-0.5 0-0.5 0-0.3z"/><path  d="m14.8 14.8q0 0 0.1 0.1l0.1 0.1-0.1-0.1q-0.1-0.2-0.1-0.1z"/><path  d="m14.2 15.4v0.4h0.5 0.5l0.2-0.2 0.1-0.2-0.2 0.2-0.2 0.2h-0.4-0.5v-0.3q0-0.7 0-0.1z"/><path  d="m15.3 15.3c0 0 0.1 0.1 0.1 0.1q0 0-0.1-0.2c0 0-0.1-0.1-0.1-0.1q0 0 0.1 0.1z"/><path  d="m18.5 16c0 0.2 0 0.4 0 0.4-0.1 0.1-0.1 0.1-1 0.1h-0.9l-0.3-0.2c-0.1-0.2-0.2-0.2-0.1-0.3q0-0.1-0.1 0c0 0.1 0 0.1 0.1 0.2 0 0 0.1 0.1 0.2 0.2l0.2 0.1h0.7c0.4 0 0.7 0 0.7 0.1q0.1 0 0 0c0 0 0.1 0 0.3 0h0.4l-0.1-0.1c0-0.1 0-0.2 0-0.2q-0.1 0-0.1-0.3v-0.4z"/><path  d="m14.1 16q0.1 0 0.1 0 0 0-0.1 0 0 0 0 0z"/><path  d="m19.7 16.1q0 0 0 0 0 0 0.1 0 0-0.1 0-0.1 0 0-0.1 0.1z"/><path  d="m19.1 16.8c-0.3 0.4-0.7 0.7-1.1 0.9q-0.6 0.3 0 0.1 0.4-0.2 0.8-0.5l0.2-0.2v0.1q0 0.1 0.1 0.1 0 0 0 0.1c0 0.1-0.5 0.4-1 0.7-0.1 0-0.2 0.1-0.2 0.1 0 0 0.6-0.3 0.8-0.5 0.5-0.3 1-0.8 1.1-1.1q0 0 0 0.1c-0.2 0.2-0.3 0.3-0.4 0.4q-0.1 0.1-0.1 0 0 0 0 0-0.1 0-0.1 0 0 0 0 0c-0.1-0.1-0.1-0.1-0.1 0q0 0-0.1 0c0 0 0.1-0.1 0.2-0.3 0.1-0.1 0.2-0.2 0.2-0.2 0.2-0.2 0-0.1-0.3 0.2z"/><path  d="m14.9 18.1q0 0 0.1 0 0 0-0.1 0 0 0 0 0z"/><path  d="m15 18.1q0.1 0.1 0.1 0 0 0-0.1 0 0 0 0 0z"/><path  d="m14.5 18.4q0 0 0.1 0 0 0 0 0-0.1-0.1-0.1-0.1 0 0 0 0.1z"/><path  d="m10.1 20.3q-0.1 0.1 0 0.1 0 0 0 0c0.1 0 0.1 0 0.5-0.1h0.2-0.3c-0.1 0-0.3 0-0.4 0z"/><path  d="m10.8 20.3q0.1 0 0.1 0 0 0 0 0-0.1 0-0.1 0z"/><path  d="m12 20.4q0 0.1 0 0c0.1 0 0.3 0 0.9 0 0.4 0 0.8 0 0.8 0q0.1 0 0.1 0 0 0.1 0 0v-0.1h-0.9c-0.9 0-0.9 0-0.9 0.1z"/><path  d="m14.4 20.4q0 0.1 0.1 0c0 0 0.4 0 0.8 0 0.2 0 0.4 0 0.6 0h0.1-0.1c-0.1 0-0.4-0.1-0.8-0.1h-0.7z"/><path  d="m18 20.3q0 0.1-0.1 0.2h0.1q0.1-0.1 0.2-0.1 0 0 0-0.1 0 0-0.1 0-0.1 0-0.1 0z"/><path  d="m18.4 20.3c0 0.1 0 0.1 0.1 0.2l0.1 0.1v-0.2c-0.1-0.1-0.1-0.1-0.2-0.1q-0.1 0 0 0z"/><path  d="m20.1 20.3q0 0.1 0.1 0.1 0.1 0 0.1 0 0.1 0 0.2 0 0.1 0 0 0c0-0.1-0.1-0.1-0.2-0.1-0.1 0-0.2 0-0.2 0z"/><path  d="m21.8 20.4q0 0 0.1 0c0-0.1 0.3-0.1 0.4 0q0 0 0 0c0-0.1 0-0.1-0.2-0.1-0.2 0-0.3 0-0.3 0.1z"/><path  d="m11 20.4q0 0 0.1 0 0-0.1-0.1-0.1 0 0 0 0.1z"/><path  d="m11.1 20.4q0.1 0.1 0.1 0.1 0.1 0 0.1 0 0 0 0 0 0 0.1 0.1 0 0 0-0.2-0.1c-0.1 0-0.1 0-0.1 0z"/><path  d="m21.7 22.5q0 0.1 0 0.1 0.1 0.1 0 0 0-0.1 0-0.1z"/><path  d="m19 22.6q0 0.1 0.1 0.1c0 0.1 0 0.1 0.1 0.1q0.1 0 0.1 0 0 0 0 0 0 0 0-0.1-0.1 0-0.1 0 0 0 0 0 0-0.1-0.1-0.1-0.1 0-0.1 0z"/><path  d="m12 22.7c0 0.1 0 0.1 0.1 0.1q0.1 0 0 0-0.1 0-0.1-0.1 0-0.1 0 0z"/><path  d="m16.5 22.7c0 0-0.1 0.1-0.3 0.1-0.1 0-0.2 0-0.1 0q0 0 0.3 0c0.1 0 0.2 0 0.2 0q0 0 0-0.1c-0.1 0-0.1 0-0.1 0z"/><path  d="m21.8 22.7c0.1 0.1 0.1 0.1 0.3 0.1 0.2 0 0.2 0 0.2 0q0-0.1-0.1-0.1 0 0-0.1 0c0 0-0.1 0-0.2 0h-0.1z"/><path  d="m17.4 22.7c0 0-0.2 0-0.4 0.1q-0.2 0 0 0c0 0 0.2 0 0.2 0 0.2 0.1 0.2 0 0.2 0 0-0.1 0-0.1 0-0.1z"/><path  d="m13.8 22.8h-0.1 0.1q0.1 0.1 0.1 0 0-0.1-0.1 0z"/><path  d="m14.4 22.8c0 0 0.1 0 0.3 0 0.1 0 0.2 0 0.2 0 0 0-0.1 0-0.2 0q-0.2 0-0.2 0 0-0.1 0-0.1-0.1 0-0.1 0.1z"/><path  d="m19.6 22.7q0 0.1-0.1 0.1-0.1 0 0 0 0.2 0.1 0.1 0 0-0.1 0-0.1z"/><path  d="m20.1 22.8q0 0.1 0.2 0 0.1 0-0.1 0-0.1-0.1-0.1 0z"/><path  d="m9.8 22.8q0 0 0.1 0 0 0-0.1 0 0 0 0 0z"/><path  d="m10 22.8q0 0 0.1 0 0.1 0 0 0-0.1 0-0.1 0-0.1 0 0 0z"/><path  d="m10.6 22.8q0 0-0.1 0-0.2 0.1 0.1 0.1c0.2-0.1 0.4-0.1 0.2-0.1q-0.2 0-0.2 0z"/><path  d="m12.7 22.8c0 0 0.1 0 0.2 0q0.1 0-0.1 0-0.2 0-0.1 0z"/><path  d="m13 22.8q0.1 0 0.1 0 0 0-0.1 0 0 0 0 0z"/></svg>